<?xml version="1.0" encoding="UTF-8" standalone="no"?>
<svg version="1.1" id="Layer_1" xmlns="http://www.w3.org/2000/svg" xmlns:xlink="http://www.w3.org/1999/xlink" x="0px" y="0px"
	 width="100px" height="100px" viewBox="0 0 140 140" enable-background="new 0 0 140 140" xml:space="preserve">
  <g>
    <rect y="0" x="0" height="10" width="20" fill="#d9ef90" />
    <rect y="0" x="20" height="10" width="20" fill="#75c364" />
    <rect y="0" x="40" height="10" width="20" fill="#22964f" />
    <rect y="0" x="60" height="10" width="20" fill="#84ca67" />
    <rect y="0" x="80" height="10" width="20" fill="#9fd66d" />
    <rect y="0" x="100" height="10" width="20" fill="#8ece68" />
    <rect y="0" x="120" height="10" width="20" fill="#57b55e" />

    <rect y="10" x="0" height="10" width="20" fill="#bde37a" />
    <rect y="10" x="20" height="10" width="20" fill="#8cce68" />
    <rect y="10" x="40" height="10" width="20" fill="#41aa59" />
    <rect y="10" x="60" height="10" width="20" fill="#90cf69" />
    <rect y="10" x="80" height="10" width="20" fill="#86cb67" />
    <rect y="10" x="100" height="10" width="20" fill="#96d26a" />
    <rect y="10" x="120" height="10" width="20" fill="#60ba60" />

    <rect y="20" x="0" height="10" width="20" fill="#fbf5ac" />
    <rect y="20" x="20" height="10" width="20" fill="#d6ee8e" />
    <rect y="20" x="40" height="10" width="20" fill="#83ca66" />
    <rect y="20" x="60" height="10" width="20" fill="#e4f49c" />
    <rect y="20" x="80" height="10" width="20" fill="#d8ee8f" />
    <rect y="20" x="100" height="10" width="20" fill="#d5ed8c" />
    <rect y="20" x="120" height="10" width="20" fill="#d5ed8c" />

    <rect y="30" x="0" height="10" width="20" fill="#feea9e" />
    <rect y="30" x="20" height="10" width="20" fill="#dcf094" />
    <rect y="30" x="40" height="10" width="20" fill="#9ad46b" />
    <rect y="30" x="60" height="10" width="20" fill="#dff196" />
    <rect y="30" x="80" height="10" width="20" fill="#e2f399" />
    <rect y="30" x="100" height="10" width="20" fill="#d9ef91" />
    <rect y="30" x="120" height="10" width="20" fill="#d1eb89" />

    <rect y="40" x="0" height="10" width="20" fill="#f78950" />
    <rect y="40" x="20" height="10" width="20" fill="#f89154" />
    <rect y="40" x="40" height="10" width="20" fill="#fee698" />
    <rect y="40" x="60" height="10" width="20" fill="#f7874f" />
    <rect y="40" x="80" height="10" width="20" fill="#fa9a59" />
    <rect y="40" x="100" height="10" width="20" fill="#fa9f5c" />
    <rect y="40" x="120" height="10" width="20" fill="#fcb267" />

    <rect y="50" x="0" height="10" width="20" fill="#f88c52" />
    <rect y="50" x="20" height="10" width="20" fill="#fdc777" />
    <rect y="50" x="40" height="10" width="20" fill="#fdf3a9" />
    <rect y="50" x="60" height="10" width="20" fill="#fdbd6f" />
    <rect y="50" x="80" height="10" width="20" fill="#fece7e" />
    <rect y="50" x="100" height="10" width="20" fill="#fecb7b" />
    <rect y="50" x="120" height="10" width="20" fill="#fee192" />

    <rect y="60" x="0" height="10" width="20" fill="#fa9d5a" />
    <rect y="60" x="20" height="10" width="20" fill="#fee090" />
    <rect y="60" x="40" height="10" width="20" fill="#eff7a7" />
    <rect y="60" x="60" height="10" width="20" fill="#fdc474" />
    <rect y="60" x="80" height="10" width="20" fill="#feeb9f" />
    <rect y="60" x="100" height="10" width="20" fill="#fdf2a8" />
    <rect y="60" x="120" height="10" width="20" fill="#f8f7ae" />

    <rect y="70" x="0" height="10" width="20" fill="#fee99c" />
    <rect y="70" x="20" height="10" width="20" fill="#f7f8ad" />
    <rect y="70" x="40" height="10" width="20" fill="#dcf093" />
    <rect y="70" x="60" height="10" width="20" fill="#fdf1a7" />
    <rect y="70" x="80" height="10" width="20" fill="#f8f7ae" />
    <rect y="70" x="100" height="10" width="20" fill="#dcf093" />
    <rect y="70" x="120" height="10" width="20" fill="#b8e177" />

    <rect y="80" x="0" height="10" width="20" fill="#c8e882" />
    <rect y="80" x="20" height="10" width="20" fill="#d5ed8c" />
    <rect y="80" x="40" height="10" width="20" fill="#eff7a8" />
    <rect y="80" x="60" height="10" width="20" fill="#faf7ad" />
    <rect y="80" x="80" height="10" width="20" fill="#d0eb88" />
    <rect y="80" x="100" height="10" width="20" fill="#b6e076" />
    <rect y="80" x="120" height="10" width="20" fill="#61ba60" />

    <rect y="90" x="0" height="10" width="20" fill="#cdea85" />
    <rect y="90" x="20" height="10" width="20" fill="#b2de74" />
    <rect y="90" x="40" height="10" width="20" fill="#e2f39a" />
    <rect y="90" x="60" height="10" width="20" fill="#c6e780" />
    <rect y="90" x="80" height="10" width="20" fill="#b9e178" />
    <rect y="90" x="100" height="10" width="20" fill="#9fd66d" />
    <rect y="90" x="120" height="10" width="20" fill="#3aa657" />

    <rect y="100" x="0" height="10" width="20" fill="#8dce68" />
    <rect y="100" x="20" height="10" width="20" fill="#95d16a" />
    <rect y="100" x="40" height="10" width="20" fill="#e4f39c" />
    <rect y="100" x="60" height="10" width="20" fill="#98d36b" />
    <rect y="100" x="80" height="10" width="20" fill="#6ec063" />
    <rect y="100" x="100" height="10" width="20" fill="#35a356" />
    <rect y="100" x="120" height="10" width="20" fill="#34a355" />

    <rect y="110" x="0" height="10" width="20" fill="#7ec765" />
    <rect y="110" x="20" height="10" width="20" fill="#51b35d" />
    <rect y="110" x="40" height="10" width="20" fill="#87cb67" />
    <rect y="110" x="60" height="10" width="20" fill="#62ba61" />
    <rect y="110" x="80" height="10" width="20" fill="#38a557" />
    <rect y="110" x="100" height="10" width="20" fill="#20944e" />
    <rect y="110" x="120" height="10" width="20" fill="#249850" />

    <rect y="120" x="0" height="10" width="20" fill="#75c364" />
    <rect y="120" x="20" height="10" width="20" fill="#32a155" />
    <rect y="120" x="40" height="10" width="20" fill="#41aa59" />
    <rect y="120" x="60" height="10" width="20" fill="#3ea958" />
    <rect y="120" x="80" height="10" width="20" fill="#22964f" />
    <rect y="120" x="100" height="10" width="20" fill="#22964f" />
    <rect y="120" x="120" height="10" width="20" fill="#249850" />

    <rect y="130" x="0" height="10" width="20" fill="#45ac5a" />
    <rect y="130" x="20" height="10" width="20" fill="#2c9e53" />
    <rect y="130" x="40" height="10" width="20" fill="#44ac5a" />
    <rect y="130" x="60" height="10" width="20" fill="#44ac5a" />
    <rect y="130" x="80" height="10" width="20" fill="#2f9f54" />
    <rect y="130" x="100" height="10" width="20" fill="#198e4b" />
    <rect y="130" x="120" height="10" width="20" fill="#299b52" />
  </g>
</svg>