<svg enable-background="new 0 0 404.618 404.618" viewBox="0 0 404.618 404.618" xmlns="http://www.w3.org/2000/svg"><path d="m84.62 120.674h-48.36c-2.671 0-5.16 1.436-6.495 3.75l-24.18 41.879c-1.336 2.316-1.336 5.188 0 7.5l24.18 41.885c1.335 2.311 3.824 3.746 6.495 3.746h48.36c2.671 0 5.16-1.436 6.496-3.746l24.18-41.885c1.335-2.313 1.335-5.184 0-7.5l-24.18-41.879c-1.336-2.314-3.826-3.75-6.496-3.75z"/><path d="m180.034 178.586h-48.361c-2.67 0-5.16 1.439-6.495 3.75l-24.181 41.885c-1.334 2.311-1.334 5.186 0 7.498l24.181 41.883c1.335 2.313 3.825 3.75 6.495 3.75h48.361c2.67 0 5.158-1.438 6.494-3.75l24.179-41.883c1.335-2.313 1.335-5.188 0-7.498l-24.179-41.885c-1.336-2.31-3.824-3.75-6.494-3.75z"/><path d="m186.528 293.168c-1.336-2.315-3.824-3.75-6.494-3.75h-48.361c-2.67 0-5.16 1.435-6.495 3.75l-24.181 41.879c-1.334 2.314-1.334 5.188 0 7.5l24.181 41.881c1.335 2.313 3.825 3.75 6.495 3.75h48.361c2.67 0 5.158-1.438 6.494-3.75l24.179-41.881c1.335-2.313 1.335-5.186 0-7.5z"/><path d="m110.712 280.049-24.18-41.879c-1.335-2.314-3.824-3.75-6.494-3.75h-48.362c-2.671 0-5.16 1.436-6.496 3.75l-24.18 41.879c-1.334 2.315-1.334 5.188 0 7.5l24.18 41.881c1.336 2.313 3.825 3.75 6.496 3.75h48.361c2.67 0 5.159-1.438 6.494-3.75l24.181-41.881c1.335-2.312 1.335-5.185 0-7.5z"/><path d="m180.034 64.428h-48.361c-2.67 0-5.16 1.436-6.495 3.75l-24.181 41.879c-1.334 2.314-1.334 5.185 0 7.502l24.181 41.879c1.335 2.314 3.825 3.75 6.495 3.75h48.361c2.67 0 5.158-1.436 6.494-3.75l24.179-41.879c1.335-2.316 1.335-5.188 0-7.502l-24.179-41.879c-1.336-2.314-3.824-3.75-6.494-3.75z"/><path d="m229.167 221.899h48.36c2.67 0 5.16-1.434 6.495-3.75l24.181-41.879c1.334-2.314 1.334-5.188 0-7.5l-24.181-41.885c-1.335-2.309-3.825-3.748-6.495-3.748h-48.36c-2.671 0-5.159 1.44-6.495 3.748l-24.178 41.885c-1.336 2.313-1.336 5.186 0 7.5l24.178 41.879c1.336 2.316 3.825 3.75 6.495 3.75z"/><path d="m379.436 184.803c-1.336-2.314-3.824-3.75-6.495-3.75h-48.36c-2.671 0-5.16 1.436-6.496 3.75l-24.18 41.879c-1.334 2.314-1.334 5.186 0 7.5l24.18 41.881c1.336 2.313 3.825 3.75 6.496 3.75h48.36c2.671 0 5.159-1.438 6.495-3.75l24.18-41.881c1.336-2.314 1.336-5.186 0-7.5z"/><path d="m379.436 297.295c-1.336-2.309-3.824-3.75-6.495-3.75h-48.36c-2.671 0-5.16 1.441-6.496 3.75l-24.18 41.885c-1.334 2.309-1.334 5.186 0 7.5l24.18 41.879c1.336 2.315 3.825 3.75 6.496 3.75h48.36c2.671 0 5.159-1.435 6.495-3.75l24.18-41.879c1.336-2.314 1.336-5.191 0-7.5z"/><path d="m308.204 280.049-24.181-41.879c-1.335-2.314-3.825-3.75-6.495-3.75h-48.36c-2.671 0-5.159 1.436-6.495 3.75l-24.178 41.879c-1.336 2.315-1.336 5.188 0 7.5l24.178 41.881c1.336 2.313 3.824 3.75 6.495 3.75h48.36c2.67 0 5.16-1.438 6.495-3.75l24.181-41.881c1.334-2.312 1.334-5.185 0-7.5z"/><path d="m308.204 57.94-24.181-41.881c-1.335-2.313-3.825-3.75-6.495-3.75h-48.36c-2.671 0-5.159 1.438-6.495 3.75l-24.178 41.881c-1.336 2.313-1.336 5.189 0 7.5l24.178 41.883c1.336 2.311 3.824 3.75 6.495 3.75h48.36c2.67 0 5.16-1.439 6.495-3.75l24.181-41.883c1.334-2.311 1.334-5.188 0-7.5z"/><path d="m379.436 70.639c-1.336-2.313-3.824-3.75-6.495-3.75h-48.36c-2.671 0-5.16 1.438-6.496 3.75l-24.18 41.885c-1.334 2.309-1.334 5.186 0 7.496l24.18 41.883c1.336 2.314 3.825 3.752 6.496 3.752h48.36c2.671 0 5.159-1.438 6.495-3.752l24.18-41.883c1.336-2.311 1.336-5.188 0-7.496z"/></svg>