<?xml version="1.0" encoding="utf-8"?>
<!-- Generator: Adobe Illustrator 19.0.1, SVG Export Plug-In . SVG Version: 6.00 Build 0)  -->
<!DOCTYPE svg PUBLIC "-//W3C//DTD SVG 1.1//EN" "http://www.w3.org/Graphics/SVG/1.1/DTD/svg11.dtd">
<svg version="1.1" id="Layer_1" xmlns="http://www.w3.org/2000/svg" xmlns:xlink="http://www.w3.org/1999/xlink" x="0px" y="0px"
	 width="100px" height="100px" viewBox="0 0 100 100" style="enable-background:new 0 0 100 100;" xml:space="preserve">
<style type="text/css">
	.st0{fill:url(#SVGID_1_);}
	.st1{fill:url(#SVGID_2_);}
	.st2{fill:url(#SVGID_3_);}
	.st3{fill:url(#SVGID_4_);}
	.st4{fill:url(#SVGID_5_);}
	.st5{fill:url(#SVGID_6_);}
	.st6{fill:url(#SVGID_7_);}
	.st7{fill:url(#SVGID_8_);}
	.st8{fill:url(#SVGID_9_);}
	.st9{fill:url(#SVGID_10_);}
	.st10{fill:url(#SVGID_11_);}
</style>
<g>
	<linearGradient id="SVGID_1_" gradientUnits="userSpaceOnUse" x1="30.7471" y1="3.7071" x2="30.7471" y2="26.8106">
		<stop  offset="0" style="stop-color:#02A64D"/>
		<stop  offset="1" style="stop-color:#007E39"/>
	</linearGradient>
	<polygon class="st0" points="42.3,23.1 42.3,9.7 30.7,3 19.2,9.7 19.2,23.1 30.7,29.9 	"/>
	<linearGradient id="SVGID_2_" gradientUnits="userSpaceOnUse" x1="56.4176" y1="3.7071" x2="56.4176" y2="26.8106">
		<stop  offset="0" style="stop-color:#02A64D"/>
		<stop  offset="1" style="stop-color:#007E39"/>
	</linearGradient>
	<polygon class="st1" points="68,23.1 68,9.7 56.4,3 44.9,9.7 44.9,23.1 56.4,29.9 	"/>
	<linearGradient id="SVGID_3_" gradientUnits="userSpaceOnUse" x1="82.0882" y1="3.7071" x2="82.0882" y2="26.8106">
		<stop  offset="0" style="stop-color:#02A64D"/>
		<stop  offset="1" style="stop-color:#007E39"/>
	</linearGradient>
	<polygon class="st2" points="93.6,23.1 93.6,9.7 82.1,3 70.5,9.7 70.5,23.1 82.1,29.9 	"/>
	<path d="M96.2,24.6V8.2L82.1,0L69.3,7.5L56.4,0L43.6,7.5L30.7,0L16.6,8.2v14.9L3.8,30.6V47l12.8,7.5v14.9l12.8,7.5v14.9l14.1,8.2
		l12.8-7.5l12.8,7.5l14.1-8.2V76.8l12.8-7.5V53l-12.8-7.5V32.1L96.2,24.6z M80.8,45.5l-11.6,6.7l-11.6-6.7V32.1l11.6-6.7l11.6,6.7
		V45.5z M80.8,90.3L69.3,97l-11.6-6.7V76.9l11.6-6.7l11.6,6.7V90.3z M55.1,90.3L43.6,97L32,90.3V76.9l11.6-6.7l11.6,6.7V90.3z
		 M19.2,9.7L30.7,3l11.6,6.7v13.5l-11.6,6.7l-11.6-6.7V9.7z M44.9,9.7L56.4,3L68,9.7v13.5l-11.6,6.7l-11.6-6.7V9.7z M70.5,9.7
		L82.1,3l11.6,6.7v13.5l-11.6,6.7l-11.6-6.7V9.7z M32,32.1l11.6-6.7l11.6,6.7v13.4l-11.6,6.7L32,45.5V32.1z M68,67.9l-11.6,6.7
		l-11.6-6.7V54.4l11.6-6.7L68,54.4V67.9z M6.4,32.1l11.6-6.7l11.6,6.7v13.4l-11.6,6.7L6.4,45.6V32.1z M19.2,54.4l11.6-6.7l11.6,6.7
		v13.5l-11.6,6.7l-11.6-6.7V54.4z M93.6,67.9l-11.6,6.7l-11.6-6.7V54.4l11.6-6.7l11.6,6.7V67.9z"/>
	<linearGradient id="SVGID_4_" gradientUnits="userSpaceOnUse" x1="17.9118" y1="25.5271" x2="17.9118" y2="48.6306">
		<stop  offset="0" style="stop-color:#02A64D"/>
		<stop  offset="1" style="stop-color:#007E39"/>
	</linearGradient>
	<polygon class="st3" points="29.5,45.5 29.5,32.1 17.9,25.4 6.4,32.1 6.4,45.6 17.9,52.2 	"/>
	<linearGradient id="SVGID_5_" gradientUnits="userSpaceOnUse" x1="43.5824" y1="26.1688" x2="43.5824" y2="50.5559">
		<stop  offset="0" style="stop-color:#E71E25"/>
		<stop  offset="1" style="stop-color:#A81D39"/>
	</linearGradient>
	<polygon class="st4" points="55.1,45.5 55.1,32.1 43.6,25.4 32,32.1 32,45.5 43.6,52.2 	"/>
	<linearGradient id="SVGID_6_" gradientUnits="userSpaceOnUse" x1="69.2529" y1="26.8106" x2="69.2529" y2="49.9141">
		<stop  offset="0" style="stop-color:#02A64D"/>
		<stop  offset="1" style="stop-color:#007E39"/>
	</linearGradient>
	<polygon class="st5" points="57.7,32.1 57.7,45.5 69.3,52.2 80.8,45.5 80.8,32.1 69.3,25.4 	"/>
	<linearGradient id="SVGID_7_" gradientUnits="userSpaceOnUse" x1="30.7471" y1="49.2724" x2="30.7471" y2="74.3751">
		<stop  offset="0" style="stop-color:#E71E25"/>
		<stop  offset="1" style="stop-color:#A81D39"/>
	</linearGradient>
	<polygon class="st6" points="42.3,67.9 42.3,54.4 30.7,47.7 19.2,54.4 19.2,67.9 30.7,74.6 	"/>
	<linearGradient id="SVGID_8_" gradientUnits="userSpaceOnUse" x1="56.4176" y1="49.2724" x2="56.4176" y2="72.3759">
		<stop  offset="0" style="stop-color:#02A64D"/>
		<stop  offset="1" style="stop-color:#007E39"/>
	</linearGradient>
	<polygon class="st7" points="56.4,47.7 44.9,54.4 44.9,67.9 56.4,74.6 68,67.9 68,54.4 	"/>
	<linearGradient id="SVGID_9_" gradientUnits="userSpaceOnUse" x1="82.0882" y1="49.9141" x2="82.0882" y2="73.0177">
		<stop  offset="0" style="stop-color:#02A64D"/>
		<stop  offset="1" style="stop-color:#007E39"/>
	</linearGradient>
	<polygon class="st8" points="82.1,47.7 70.5,54.4 70.5,67.9 82.1,74.6 93.6,67.9 93.6,54.4 	"/>
	<linearGradient id="SVGID_10_" gradientUnits="userSpaceOnUse" x1="43.5824" y1="71.7341" x2="43.5824" y2="94.8377">
		<stop  offset="0" style="stop-color:#02A64D"/>
		<stop  offset="1" style="stop-color:#007E39"/>
	</linearGradient>
	<polygon class="st9" points="32,76.9 32,90.3 43.6,97 55.1,90.3 55.1,76.9 43.6,70.1 	"/>
	<linearGradient id="SVGID_11_" gradientUnits="userSpaceOnUse" x1="69.2529" y1="71.7341" x2="69.2529" y2="94.8377">
		<stop  offset="0" style="stop-color:#02A64D"/>
		<stop  offset="1" style="stop-color:#007E39"/>
	</linearGradient>
	<polygon class="st10" points="57.7,76.9 57.7,90.3 69.3,97 80.8,90.3 80.8,76.9 69.3,70.1 	"/>
</g>
</svg>
