<svg width="32" height="32" viewBox="0 0 32 32" fill="none" xmlns="http://www.w3.org/2000/svg">
  <rect width="32" height="32" rx="4" fill="url(#paint0_radial_1336_16882)"/>
  <path opacity="0.33" d="M5.6001 16.3494L10.9939 25.0971L10.9949 25.0961L12.8934 21.7715L16.4606 27.9999L20.6589 20.6695L22.0975 23.1892L26.4001 16.3494L25.2867 16.3494L22.0985 21.4651L21.1512 19.8115L23.0965 16.3494H22.0045L20.6188 18.8811L19.1719 16.3494H18.168L20.129 19.738L16.4616 26.142L13.4253 20.8411L15.9902 16.3494H15.0058L12.9491 20.0097L10.8263 16.3494H9.74953L12.4173 20.9381L10.9949 23.4211L6.48995 16.3494H5.6001Z" fill="white"/>
  <path d="M24.3628 12.7818C24.7488 12.4406 25.0294 11.9882 25.1642 11.4816C25.3465 10.7983 25.2533 10.0843 24.9028 9.47151C24.5523 8.85868 23.986 8.42051 23.3083 8.23769C23.0844 8.17743 22.8554 8.14678 22.6255 8.14678C22.3448 8.14678 22.0632 8.19479 21.7948 8.28569L21.0056 6.90377L19.1071 10.2283L15.5402 4L11.3421 11.3304L9.90355 8.81068L5.6001 16.3495H26.4001L24.3628 12.7818ZM22.6255 8.98329C22.7825 8.98329 22.9405 9.00474 23.0945 9.0456C23.5565 9.16918 23.9434 9.46844 24.1845 9.88823C24.4246 10.307 24.4885 10.7952 24.3639 11.263C24.2848 11.5582 24.139 11.8197 23.9374 12.0352L22.2223 9.0313C22.355 8.99963 22.4917 8.98329 22.6265 8.98329H22.6255ZM7.08017 15.4874L9.90253 10.5348L10.8497 12.1884L8.97458 15.4874H7.08017ZM11.3816 13.1178L12.7006 15.4874H10.0626L11.3816 13.1178ZM13.6751 15.4874L11.8719 12.2619L15.5392 5.85788L18.5753 11.1588L16.1409 15.4874H13.6751ZM19.0514 11.9902L21.0157 15.4874H17.0871L19.0514 11.9902ZM22.1179 15.4874L19.5833 11.0618L21.0056 8.57883L24.9616 15.4874H22.1179Z" fill="white"/>
  <defs>
    <radialGradient id="paint0_radial_1336_16882" cx="0" cy="0" r="1" gradientUnits="userSpaceOnUse" gradientTransform="translate(0.546394 30.8353) scale(42.1382)">
      <stop offset="0.22" stop-color="#AC3100"/>
      <stop offset="1" stop-color="#E87318"/>
    </radialGradient>
  </defs>
</svg>
