<svg width="32" height="32" viewBox="0 0 32 32" fill="none" xmlns="http://www.w3.org/2000/svg">
    <rect width="32" height="32" fill="#CCCCDC" fill-opacity="0.12"/>
    <path d="M22.5453 17.3279C24.7642 15.8784 25.4902 12.9218 24.1474 10.5981C23.4746 9.43248 22.387 8.59774 21.0859 8.24918C19.8804 7.92575 18.6213 8.058 17.5131 8.61752L16.0001 6L12.8594 11.4361L5.6001 24H26.4001L22.5453 17.3279ZM20.7301 9.5808C21.6759 9.83254 22.4629 10.4394 22.9531 11.2845C23.9166 12.9502 23.4161 15.063 21.8535 16.1301L18.2041 9.814C18.9903 9.43618 19.8771 9.35378 20.7301 9.5808ZM16.0001 8.75884L24.0081 22.6202H19.3226L13.6563 12.8155L15.9997 8.75925L16.0001 8.75884ZM7.99211 22.6202L12.859 14.1978L17.7259 22.6202H7.99211Z" fill="url(#paint0_linear_1445_22651)"/>
    <defs>
        <linearGradient id="paint0_linear_1445_22651" x1="8.09811" y1="22.5484" x2="24.3036" y2="13.6559" gradientUnits="userSpaceOnUse">
            <stop stop-color="#FC3519"/>
            <stop offset="1" stop-color="#F0D136"/>
        </linearGradient>
    </defs>
</svg>
