<svg width="21" height="21" viewBox="0 0 21 21" fill="none" xmlns="http://www.w3.org/2000/svg">
    <path d="M10.3516 0.5C4.85156 0.5 0.351562 5 0.351562 10.5C0.351562 16 4.85156 20.5 10.3516 20.5C15.8516 20.5 20.3516 16 20.3516 10.5C20.3516 5 15.8516 0.5 10.3516 0.5ZM14.5516 8.8L9.75156 13.6C9.35156 14 8.75156 14 8.35156 13.6L6.15156 11.4C5.75156 11 5.75156 10.4 6.15156 10C6.55156 9.6 7.15156 9.6 7.55156 10L9.05156 11.5L13.1516 7.4C13.5516 7 14.1516 7 14.5516 7.4C14.9516 7.8 14.9516 8.4 14.5516 8.8Z" fill="#6CCF8E"/>
</svg>
