<svg width="86" height="96" viewBox="0 0 86 96" fill="none" xmlns="http://www.w3.org/2000/svg">
    <path d="M51.0773 72.5625L55.0854 33.0341C55.3229 29.7128 54.6044 24.0667 49.8303 28.0522C43.8627 33.0341 52.9477 38.7407 51.0773 29.6827C49.2068 20.6246 41.1015 24.7913 41.9031 30.1356C42.7048 35.4798 48.5834 35.661 43.5955 29.3203C38.6077 22.9797 37.0044 27.4182 37.6279 32.2189C38.1267 36.0595 38.5483 38.7709 38.6967 39.6465L42.75 72.5625" stroke="#F24500" stroke-width="1.5" stroke-linecap="round" stroke-linejoin="round"/>
    <path d="M36.8465 94.875C86.0587 83.5458 99.3731 58.8304 68.2498 57.375M9.67618 38.625C-5.64592 49.2856 -3.81382 61.7981 27.9373 59.8125" stroke="#FEECE6" stroke-width="1.5" stroke-linecap="round" stroke-linejoin="round" stroke-dasharray="0.1 4"/>
    <path d="M31.2376 26.7715L15.8989 34.0249L18.4372 42.4417L31.2376 26.7715Z" stroke="#FEECE6" stroke-width="1.5" stroke-linejoin="round"/>
    <path d="M8.20422 29.24L13.1801 32.1692L31.2375 26.7716L8.20422 29.24Z" stroke="#FEECE6" stroke-width="1.5" stroke-linejoin="round"/>
    <path d="M15.899 34.0249L13.5416 38.7902L16.6816 36.8539" stroke="#FEECE6" stroke-width="1.5" stroke-linecap="round" stroke-linejoin="round"/>
    <path d="M13.1802 32.1692L13.4512 38.7802" stroke="#FEECE6" stroke-width="1.5" stroke-linecap="round" stroke-linejoin="round"/>
    <path d="M35.364 72.75C35.364 63.3848 32.1086 54.2669 25.9915 47.1728C24.8967 45.9058 23.9255 44.5503 23.0851 43.125M58.8756 72.75C58.8904 63.3171 62.2595 54.1967 68.3812 47.0176C72.6632 41.9877 75.0101 35.5963 75 28.9919C75 21.6012 72.0627 14.5132 66.8342 9.2871C61.6056 4.06104 54.5142 1.12505 47.12 1.125C33.5877 1.125 22.1908 10.9787 19.731 23.8125" stroke="#FEECE6" stroke-width="1.5" stroke-linecap="round" stroke-linejoin="round"/>
    <path d="M58.875 72.75C58.875 75.8331 57.6502 78.79 55.4701 80.9701C53.29 83.1502 50.3331 84.375 47.25 84.375C44.1669 84.375 41.21 83.1502 39.0299 80.9701C36.8498 78.79 35.625 75.8331 35.625 72.75" stroke="#FEECE6" stroke-width="1.5" stroke-linejoin="round"/>
</svg>
