<svg width="160" height="160" fill="none" xmlns="http://www.w3.org/2000/svg"><rect width="160" height="160" rx="24" fill="url('#paint0_radial_10873_73750')"/><path opacity=".33" d="m28 81.747 26.969 43.739.005-.005 9.493-16.623L82.302 140l20.992-36.652 7.193 12.599L132 81.747h-5.567l-15.941 25.579-4.736-8.268 9.726-17.31h-5.46l-6.928 12.658-7.235-12.659h-5.02l9.805 16.943-18.337 32.021-15.181-26.505 12.825-22.459h-4.922L64.745 100.05 54.131 81.747h-5.384l13.339 22.944-7.112 12.415-22.525-35.359H28Z" fill="#fff"/><path d="M121.814 63.909a13.204 13.204 0 0 0 4.006-6.501 13.245 13.245 0 0 0-1.306-10.05c-1.753-3.065-4.585-5.255-7.973-6.17a13.122 13.122 0 0 0-3.414-.454c-1.403 0-2.811.24-4.154.694l-3.946-6.91-9.492 16.624L77.7 20 56.71 56.652l-7.193-12.599L28 81.747h104L121.814 63.91Zm-8.687-18.992a9.16 9.16 0 0 1 2.345.311c2.31.618 4.245 2.114 5.45 4.213a9.049 9.049 0 0 1 .897 6.874 9.03 9.03 0 0 1-2.133 3.86l-8.575-15.018a8.741 8.741 0 0 1 2.021-.24h-.005ZM35.4 77.436l14.112-24.763 4.736 8.268-9.376 16.495H35.4ZM56.908 65.59l6.594 11.848h-13.19l6.596-11.848Zm11.467 11.848L59.36 61.31l18.336-32.02 15.18 26.504-12.17 21.643h-12.33Zm26.882-17.486 9.821 17.486H85.435l9.822-17.486Zm15.332 17.486L97.916 55.31l7.111-12.415 19.78 34.543h-14.218Z" fill="#fff"/><defs><radialGradient id="paint0_radial_10873_73750" cx="0" cy="0" r="1" gradientUnits="userSpaceOnUse" gradientTransform="translate(2.732 154.177) scale(210.691)"><stop offset=".22" stop-color="#AC3100"/><stop offset="1" stop-color="#E87318"/></radialGradient></defs></svg>