<?xml version="1.0" encoding="utf-8"?>
<!-- Generator: Adobe Illustrator 19.1.0, SVG Export Plug-In . SVG Version: 6.00 Build 0)  -->
<svg version="1.1" id="Layer_1" xmlns="http://www.w3.org/2000/svg" xmlns:xlink="http://www.w3.org/1999/xlink" x="0px" y="0px"
	 width="150px" height="150px" viewBox="0 0 150 150" style="enable-background:new 0 0 150 150;" xml:space="preserve">
<style type="text/css">
	.st0{fill:none;}
	.st1{fill:#3BB0C9;}
	.st2{fill:#205E66;}
	.st3{fill:url(#SVGID_1_);}
</style>
<g>
	<path class="st0" d="M75,33.8c0.7,0,1.4-0.1,2.2-0.2c3.5-0.8,6.3-3.6,7-7C85.5,20.5,80.9,15,75,15c-0.7,0-1.4,0.1-2.2,0.2
		c-3.5,0.8-6.3,3.6-7,7C64.5,28.4,69.1,33.8,75,33.8z"/>
	<path class="st1" d="M12.9,46.1L0.6,150l37.2-39V23.2L12.9,46.1z M18.2,71c-0.9,0-1.6-0.7-1.6-1.6c0-0.9,0.7-1.6,1.6-1.6
		c0.9,0,1.6,0.7,1.6,1.6C19.8,70.2,19.1,71,18.2,71z M18.2,66.6c-0.9,0-1.6-0.7-1.6-1.6s0.7-1.6,1.6-1.6c0.9,0,1.6,0.7,1.6,1.6
		S19.1,66.6,18.2,66.6z M18.2,62.2c-0.9,0-1.6-0.7-1.6-1.6c0-0.9,0.7-1.6,1.6-1.6c0.9,0,1.6,0.7,1.6,1.6
		C19.8,61.5,19.1,62.2,18.2,62.2z M22.5,71c-0.9,0-1.6-0.7-1.6-1.6c0-0.9,0.7-1.6,1.6-1.6c0.9,0,1.6,0.7,1.6,1.6
		C24.1,70.2,23.4,71,22.5,71z M22.5,66.6c-0.9,0-1.6-0.7-1.6-1.6s0.7-1.6,1.6-1.6c0.9,0,1.6,0.7,1.6,1.6S23.4,66.6,22.5,66.6z
		 M22.5,62.2c-0.9,0-1.6-0.7-1.6-1.6c0-0.9,0.7-1.6,1.6-1.6c0.9,0,1.6,0.7,1.6,1.6C24.1,61.5,23.4,62.2,22.5,62.2z M26.9,71
		c-0.9,0-1.6-0.7-1.6-1.6c0-0.9,0.7-1.6,1.6-1.6c0.9,0,1.6,0.7,1.6,1.6C28.4,70.2,27.7,71,26.9,71z M26.9,66.6
		c-0.9,0-1.6-0.7-1.6-1.6s0.7-1.6,1.6-1.6c0.9,0,1.6,0.7,1.6,1.6S27.7,66.6,26.9,66.6z M31.2,84.1c-0.9,0-1.6-0.7-1.6-1.6
		c0-0.9,0.7-1.6,1.6-1.6c0.9,0,1.6,0.7,1.6,1.6C32.8,83.4,32.1,84.1,31.2,84.1z M31.2,79.7c-0.9,0-1.6-0.7-1.6-1.6
		c0-0.9,0.7-1.6,1.6-1.6c0.9,0,1.6,0.7,1.6,1.6C32.8,79,32.1,79.7,31.2,79.7z M31.2,75.3c-0.9,0-1.6-0.7-1.6-1.6
		c0-0.9,0.7-1.6,1.6-1.6c0.9,0,1.6,0.7,1.6,1.6C32.8,74.6,32.1,75.3,31.2,75.3z M31.2,71c-0.9,0-1.6-0.7-1.6-1.6
		c0-0.9,0.7-1.6,1.6-1.6c0.9,0,1.6,0.7,1.6,1.6C32.8,70.2,32.1,71,31.2,71z M31.2,66.6c-0.9,0-1.6-0.7-1.6-1.6s0.7-1.6,1.6-1.6
		c0.9,0,1.6,0.7,1.6,1.6S32.1,66.6,31.2,66.6z M31.2,62.2c-0.9,0-1.6-0.7-1.6-1.6c0-0.9,0.7-1.6,1.6-1.6c0.9,0,1.6,0.7,1.6,1.6
		C32.8,61.5,32.1,62.2,31.2,62.2z M31.2,57.8c-0.9,0-1.6-0.7-1.6-1.6c0-0.9,0.7-1.6,1.6-1.6c0.9,0,1.6,0.7,1.6,1.6
		C32.8,57.1,32.1,57.8,31.2,57.8z M35.5,88.5c-0.9,0-1.6-0.7-1.6-1.6s0.7-1.6,1.6-1.6c0.9,0,1.6,0.7,1.6,1.6S36.4,88.5,35.5,88.5z
		 M35.5,84.1c-0.9,0-1.6-0.7-1.6-1.6c0-0.9,0.7-1.6,1.6-1.6c0.9,0,1.6,0.7,1.6,1.6C37.1,83.4,36.4,84.1,35.5,84.1z M35.5,79.7
		c-0.9,0-1.6-0.7-1.6-1.6c0-0.9,0.7-1.6,1.6-1.6c0.9,0,1.6,0.7,1.6,1.6C37.1,79,36.4,79.7,35.5,79.7z M35.5,75.3
		c-0.9,0-1.6-0.7-1.6-1.6c0-0.9,0.7-1.6,1.6-1.6c0.9,0,1.6,0.7,1.6,1.6C37.1,74.6,36.4,75.3,35.5,75.3z M35.5,71
		c-0.9,0-1.6-0.7-1.6-1.6c0-0.9,0.7-1.6,1.6-1.6c0.9,0,1.6,0.7,1.6,1.6C37.1,70.2,36.4,71,35.5,71z M35.5,66.6
		c-0.9,0-1.6-0.7-1.6-1.6s0.7-1.6,1.6-1.6c0.9,0,1.6,0.7,1.6,1.6S36.4,66.6,35.5,66.6z M35.5,62.2c-0.9,0-1.6-0.7-1.6-1.6
		c0-0.9,0.7-1.6,1.6-1.6c0.9,0,1.6,0.7,1.6,1.6C37.1,61.5,36.4,62.2,35.5,62.2z M35.5,57.8c-0.9,0-1.6-0.7-1.6-1.6
		c0-0.9,0.7-1.6,1.6-1.6c0.9,0,1.6,0.7,1.6,1.6C37.1,57.1,36.4,57.8,35.5,57.8z"/>
	<path class="st2" d="M74.5,101.7c-0.9,0-1.6-0.7-1.6-1.6c0-0.9,0.7-1.6,1.6-1.6c0.2,0,0.4,0,0.5,0.1v-1.4c-0.2,0.1-0.3,0.1-0.5,0.1
		c-0.9,0-1.6-0.7-1.6-1.6s0.7-1.6,1.6-1.6c0.2,0,0.4,0,0.5,0.1v-1.4c-0.2,0.1-0.3,0.1-0.5,0.1c-0.9,0-1.6-0.7-1.6-1.6
		s0.7-1.6,1.6-1.6c0.2,0,0.4,0,0.5,0.1v-1.4c-0.2,0.1-0.3,0.1-0.5,0.1c-0.9,0-1.6-0.7-1.6-1.6s0.7-1.6,1.6-1.6c0.2,0,0.4,0,0.5,0.1
		v-5.8c-0.2,0.1-0.3,0.1-0.5,0.1c-0.9,0-1.6-0.7-1.6-1.6c0-0.9,0.7-1.6,1.6-1.6c0.2,0,0.4,0,0.5,0.1v-2.1l0,0l-5.5-5.8l-3.7-3.9
		l-6.8-7.2l-6.8-7.1c-5.7-6-9-13.9-9.4-22.3l-4.9-5.1V111L75,150v-48.4C74.8,101.6,74.7,101.7,74.5,101.7z M39.8,92.9
		c-0.9,0-1.6-0.7-1.6-1.6s0.7-1.6,1.6-1.6c0.9,0,1.6,0.7,1.6,1.6S40.7,92.9,39.8,92.9z M39.8,88.5c-0.9,0-1.6-0.7-1.6-1.6
		s0.7-1.6,1.6-1.6c0.9,0,1.6,0.7,1.6,1.6S40.7,88.5,39.8,88.5z M39.8,84.1c-0.9,0-1.6-0.7-1.6-1.6c0-0.9,0.7-1.6,1.6-1.6
		c0.9,0,1.6,0.7,1.6,1.6C41.4,83.4,40.7,84.1,39.8,84.1z M39.8,79.7c-0.9,0-1.6-0.7-1.6-1.6c0-0.9,0.7-1.6,1.6-1.6
		c0.9,0,1.6,0.7,1.6,1.6C41.4,79,40.7,79.7,39.8,79.7z M39.8,75.3c-0.9,0-1.6-0.7-1.6-1.6c0-0.9,0.7-1.6,1.6-1.6
		c0.9,0,1.6,0.7,1.6,1.6C41.4,74.6,40.7,75.3,39.8,75.3z M39.8,71c-0.9,0-1.6-0.7-1.6-1.6c0-0.9,0.7-1.6,1.6-1.6
		c0.9,0,1.6,0.7,1.6,1.6C41.4,70.2,40.7,71,39.8,71z M39.8,66.6c-0.9,0-1.6-0.7-1.6-1.6s0.7-1.6,1.6-1.6c0.9,0,1.6,0.7,1.6,1.6
		S40.7,66.6,39.8,66.6z M39.8,62.2c-0.9,0-1.6-0.7-1.6-1.6c0-0.9,0.7-1.6,1.6-1.6c0.9,0,1.6,0.7,1.6,1.6
		C41.4,61.5,40.7,62.2,39.8,62.2z M39.8,57.8c-0.9,0-1.6-0.7-1.6-1.6c0-0.9,0.7-1.6,1.6-1.6c0.9,0,1.6,0.7,1.6,1.6
		C41.4,57.1,40.7,57.8,39.8,57.8z M39.8,53.4c-0.9,0-1.6-0.7-1.6-1.6c0-0.9,0.7-1.6,1.6-1.6c0.9,0,1.6,0.7,1.6,1.6
		C41.4,52.7,40.7,53.4,39.8,53.4z M44.2,97.3c-0.9,0-1.6-0.7-1.6-1.6s0.7-1.6,1.6-1.6c0.9,0,1.6,0.7,1.6,1.6S45,97.3,44.2,97.3z
		 M44.2,84.1c-0.9,0-1.6-0.7-1.6-1.6c0-0.9,0.7-1.6,1.6-1.6c0.9,0,1.6,0.7,1.6,1.6C45.8,83.4,45,84.1,44.2,84.1z M44.2,79.7
		c-0.9,0-1.6-0.7-1.6-1.6c0-0.9,0.7-1.6,1.6-1.6c0.9,0,1.6,0.7,1.6,1.6C45.8,79,45,79.7,44.2,79.7z M44.2,75.3
		c-0.9,0-1.6-0.7-1.6-1.6c0-0.9,0.7-1.6,1.6-1.6c0.9,0,1.6,0.7,1.6,1.6C45.8,74.6,45,75.3,44.2,75.3z M44.2,66.6
		c-0.9,0-1.6-0.7-1.6-1.6s0.7-1.6,1.6-1.6c0.9,0,1.6,0.7,1.6,1.6S45,66.6,44.2,66.6z M44.2,57.8c-0.9,0-1.6-0.7-1.6-1.6
		c0-0.9,0.7-1.6,1.6-1.6c0.9,0,1.6,0.7,1.6,1.6C45.8,57.1,45,57.8,44.2,57.8z M44.2,53.4c-0.9,0-1.6-0.7-1.6-1.6
		c0-0.9,0.7-1.6,1.6-1.6c0.9,0,1.6,0.7,1.6,1.6C45.8,52.7,45,53.4,44.2,53.4z M48.5,114.8c-0.9,0-1.6-0.7-1.6-1.6s0.7-1.6,1.6-1.6
		c0.9,0,1.6,0.7,1.6,1.6S49.4,114.8,48.5,114.8z M48.5,110.4c-0.9,0-1.6-0.7-1.6-1.6c0-0.9,0.7-1.6,1.6-1.6c0.9,0,1.6,0.7,1.6,1.6
		C50.1,109.7,49.4,110.4,48.5,110.4z M48.5,106.1c-0.9,0-1.6-0.7-1.6-1.6c0-0.9,0.7-1.6,1.6-1.6c0.9,0,1.6,0.7,1.6,1.6
		C50.1,105.3,49.4,106.1,48.5,106.1z M48.5,101.7c-0.9,0-1.6-0.7-1.6-1.6c0-0.9,0.7-1.6,1.6-1.6c0.9,0,1.6,0.7,1.6,1.6
		C50.1,100.9,49.4,101.7,48.5,101.7z M48.5,97.3c-0.9,0-1.6-0.7-1.6-1.6s0.7-1.6,1.6-1.6c0.9,0,1.6,0.7,1.6,1.6S49.4,97.3,48.5,97.3
		z M48.5,92.9c-0.9,0-1.6-0.7-1.6-1.6s0.7-1.6,1.6-1.6c0.9,0,1.6,0.7,1.6,1.6S49.4,92.9,48.5,92.9z M48.5,79.7
		c-0.9,0-1.6-0.7-1.6-1.6c0-0.9,0.7-1.6,1.6-1.6c0.9,0,1.6,0.7,1.6,1.6C50.1,79,49.4,79.7,48.5,79.7z M48.5,75.3
		c-0.9,0-1.6-0.7-1.6-1.6c0-0.9,0.7-1.6,1.6-1.6c0.9,0,1.6,0.7,1.6,1.6C50.1,74.6,49.4,75.3,48.5,75.3z M48.5,71
		c-0.9,0-1.6-0.7-1.6-1.6c0-0.9,0.7-1.6,1.6-1.6c0.9,0,1.6,0.7,1.6,1.6C50.1,70.2,49.4,71,48.5,71z M48.5,66.6
		c-0.9,0-1.6-0.7-1.6-1.6s0.7-1.6,1.6-1.6c0.9,0,1.6,0.7,1.6,1.6S49.4,66.6,48.5,66.6z M48.5,57.8c-0.9,0-1.6-0.7-1.6-1.6
		c0-0.9,0.7-1.6,1.6-1.6c0.9,0,1.6,0.7,1.6,1.6C50.1,57.1,49.4,57.8,48.5,57.8z M52.8,110.4c-0.9,0-1.6-0.7-1.6-1.6
		c0-0.9,0.7-1.6,1.6-1.6c0.9,0,1.6,0.7,1.6,1.6C54.4,109.7,53.7,110.4,52.8,110.4z M52.8,106.1c-0.9,0-1.6-0.7-1.6-1.6
		c0-0.9,0.7-1.6,1.6-1.6c0.9,0,1.6,0.7,1.6,1.6C54.4,105.3,53.7,106.1,52.8,106.1z M52.8,101.7c-0.9,0-1.6-0.7-1.6-1.6
		c0-0.9,0.7-1.6,1.6-1.6c0.9,0,1.6,0.7,1.6,1.6C54.4,100.9,53.7,101.7,52.8,101.7z M52.8,97.3c-0.9,0-1.6-0.7-1.6-1.6
		s0.7-1.6,1.6-1.6c0.9,0,1.6,0.7,1.6,1.6S53.7,97.3,52.8,97.3z M52.8,92.9c-0.9,0-1.6-0.7-1.6-1.6s0.7-1.6,1.6-1.6
		c0.9,0,1.6,0.7,1.6,1.6S53.7,92.9,52.8,92.9z M52.8,66.6c-0.9,0-1.6-0.7-1.6-1.6s0.7-1.6,1.6-1.6c0.9,0,1.6,0.7,1.6,1.6
		S53.7,66.6,52.8,66.6z M52.8,62.2c-0.9,0-1.6-0.7-1.6-1.6c0-0.9,0.7-1.6,1.6-1.6c0.9,0,1.6,0.7,1.6,1.6
		C54.4,61.5,53.7,62.2,52.8,62.2z M57.2,101.7c-0.9,0-1.6-0.7-1.6-1.6c0-0.9,0.7-1.6,1.6-1.6c0.9,0,1.6,0.7,1.6,1.6
		C58.7,100.9,58,101.7,57.2,101.7z M57.2,97.3c-0.9,0-1.6-0.7-1.6-1.6s0.7-1.6,1.6-1.6c0.9,0,1.6,0.7,1.6,1.6S58,97.3,57.2,97.3z
		 M65.8,97.3c-0.9,0-1.6-0.7-1.6-1.6s0.7-1.6,1.6-1.6c0.9,0,1.6,0.7,1.6,1.6S66.7,97.3,65.8,97.3z M65.8,92.9
		c-0.9,0-1.6-0.7-1.6-1.6s0.7-1.6,1.6-1.6c0.9,0,1.6,0.7,1.6,1.6S66.7,92.9,65.8,92.9z M70.1,97.3c-0.9,0-1.6-0.7-1.6-1.6
		s0.7-1.6,1.6-1.6c0.9,0,1.6,0.7,1.6,1.6S71,97.3,70.1,97.3z M70.1,92.9c-0.9,0-1.6-0.7-1.6-1.6s0.7-1.6,1.6-1.6
		c0.9,0,1.6,0.7,1.6,1.6S71,92.9,70.1,92.9z M70.1,88.5c-0.9,0-1.6-0.7-1.6-1.6s0.7-1.6,1.6-1.6c0.9,0,1.6,0.7,1.6,1.6
		S71,88.5,70.1,88.5z M70.1,79.7c-0.9,0-1.6-0.7-1.6-1.6c0-0.9,0.7-1.6,1.6-1.6c0.9,0,1.6,0.7,1.6,1.6C71.7,79,71,79.7,70.1,79.7z"
		/>
	<path class="st1" d="M111.8,104.4c0-0.4,0.2-0.8,0.4-1v-6.7c-0.2-0.3-0.4-0.6-0.4-1s0.2-0.8,0.4-1V83.6c-0.2-0.3-0.4-0.6-0.4-1
		s0.2-0.8,0.4-1v-2.3c-0.2-0.3-0.4-0.6-0.4-1c0-0.4,0.2-0.8,0.4-1v-2.3c-0.2-0.3-0.4-0.6-0.4-1c0-0.4,0.2-0.8,0.4-1v-2.3
		c-0.2-0.3-0.4-0.6-0.4-1c0-0.4,0.2-0.8,0.4-1V66c-0.2-0.3-0.4-0.6-0.4-1s0.2-0.8,0.4-1v-2.3c-0.2-0.3-0.4-0.6-0.4-1
		c0-0.4,0.2-0.8,0.4-1V23.2l-4.9,5.1c-0.4,8.4-3.7,16.3-9.5,22.3l-1.3,1.4h0L84.3,64.9l-3.7,3.9L75,74.6v2.1c0.6,0.2,1,0.8,1,1.5
		c0,0.7-0.4,1.3-1,1.5v5.8c0.6,0.2,1,0.8,1,1.5s-0.4,1.3-1,1.5v1.4c0.6,0.2,1,0.8,1,1.5s-0.4,1.3-1,1.5v1.4c0.6,0.2,1,0.8,1,1.5
		s-0.4,1.3-1,1.5v1.4c0.6,0.2,1,0.8,1,1.5s-0.4,1.3-1,1.5V150l37.2-39v-5.5C112,105.2,111.8,104.9,111.8,104.4z M78.8,110.4
		c-0.9,0-1.6-0.7-1.6-1.6c0-0.9,0.7-1.6,1.6-1.6c0.9,0,1.6,0.7,1.6,1.6C80.4,109.7,79.7,110.4,78.8,110.4z M78.8,106.1
		c-0.9,0-1.6-0.7-1.6-1.6c0-0.9,0.7-1.6,1.6-1.6c0.9,0,1.6,0.7,1.6,1.6C80.4,105.3,79.7,106.1,78.8,106.1z M78.8,101.7
		c-0.9,0-1.6-0.7-1.6-1.6c0-0.9,0.7-1.6,1.6-1.6c0.9,0,1.6,0.7,1.6,1.6C80.4,100.9,79.7,101.7,78.8,101.7z M78.8,97.3
		c-0.9,0-1.6-0.7-1.6-1.6s0.7-1.6,1.6-1.6c0.9,0,1.6,0.7,1.6,1.6S79.7,97.3,78.8,97.3z M78.8,92.9c-0.9,0-1.6-0.7-1.6-1.6
		s0.7-1.6,1.6-1.6c0.9,0,1.6,0.7,1.6,1.6S79.7,92.9,78.8,92.9z M78.8,88.5c-0.9,0-1.6-0.7-1.6-1.6s0.7-1.6,1.6-1.6
		c0.9,0,1.6,0.7,1.6,1.6S79.7,88.5,78.8,88.5z M83.1,106.1c-0.9,0-1.6-0.7-1.6-1.6c0-0.9,0.7-1.6,1.6-1.6c0.9,0,1.6,0.7,1.6,1.6
		C84.7,105.3,84,106.1,83.1,106.1z M83.1,101.7c-0.9,0-1.6-0.7-1.6-1.6c0-0.9,0.7-1.6,1.6-1.6c0.9,0,1.6,0.7,1.6,1.6
		C84.7,100.9,84,101.7,83.1,101.7z M83.1,97.3c-0.9,0-1.6-0.7-1.6-1.6s0.7-1.6,1.6-1.6c0.9,0,1.6,0.7,1.6,1.6S84,97.3,83.1,97.3z
		 M83.1,92.9c-0.9,0-1.6-0.7-1.6-1.6s0.7-1.6,1.6-1.6c0.9,0,1.6,0.7,1.6,1.6S84,92.9,83.1,92.9z M83.1,88.5c-0.9,0-1.6-0.7-1.6-1.6
		s0.7-1.6,1.6-1.6c0.9,0,1.6,0.7,1.6,1.6S84,88.5,83.1,88.5z M83.1,84.1c-0.9,0-1.6-0.7-1.6-1.6c0-0.9,0.7-1.6,1.6-1.6
		c0.9,0,1.6,0.7,1.6,1.6C84.7,83.4,84,84.1,83.1,84.1z M83.1,79.7c-0.9,0-1.6-0.7-1.6-1.6c0-0.9,0.7-1.6,1.6-1.6
		c0.9,0,1.6,0.7,1.6,1.6C84.7,79,84,79.7,83.1,79.7z M83.1,75.3c-0.9,0-1.6-0.7-1.6-1.6c0-0.9,0.7-1.6,1.6-1.6
		c0.9,0,1.6,0.7,1.6,1.6C84.7,74.6,84,75.3,83.1,75.3z M87.4,88.5c-0.9,0-1.6-0.7-1.6-1.6s0.7-1.6,1.6-1.6c0.9,0,1.6,0.7,1.6,1.6
		S88.3,88.5,87.4,88.5z M87.4,84.1c-0.9,0-1.6-0.7-1.6-1.6c0-0.9,0.7-1.6,1.6-1.6c0.9,0,1.6,0.7,1.6,1.6
		C89,83.4,88.3,84.1,87.4,84.1z M87.4,79.7c-0.9,0-1.6-0.7-1.6-1.6c0-0.9,0.7-1.6,1.6-1.6c0.9,0,1.6,0.7,1.6,1.6
		C89,79,88.3,79.7,87.4,79.7z M87.4,75.3c-0.9,0-1.6-0.7-1.6-1.6c0-0.9,0.7-1.6,1.6-1.6c0.9,0,1.6,0.7,1.6,1.6
		C89,74.6,88.3,75.3,87.4,75.3z M87.4,71c-0.9,0-1.6-0.7-1.6-1.6c0-0.9,0.7-1.6,1.6-1.6c0.9,0,1.6,0.7,1.6,1.6
		C89,70.2,88.3,71,87.4,71z M91.8,84.1c-0.9,0-1.6-0.7-1.6-1.6c0-0.9,0.7-1.6,1.6-1.6c0.9,0,1.6,0.7,1.6,1.6
		C93.4,83.4,92.6,84.1,91.8,84.1z M91.8,79.7c-0.9,0-1.6-0.7-1.6-1.6c0-0.9,0.7-1.6,1.6-1.6c0.9,0,1.6,0.7,1.6,1.6
		C93.4,79,92.6,79.7,91.8,79.7z M91.8,75.3c-0.9,0-1.6-0.7-1.6-1.6c0-0.9,0.7-1.6,1.6-1.6c0.9,0,1.6,0.7,1.6,1.6
		C93.4,74.6,92.6,75.3,91.8,75.3z M91.8,71c-0.9,0-1.6-0.7-1.6-1.6c0-0.9,0.7-1.6,1.6-1.6c0.9,0,1.6,0.7,1.6,1.6
		C93.4,70.2,92.6,71,91.8,71z M91.8,66.6c-0.9,0-1.6-0.7-1.6-1.6s0.7-1.6,1.6-1.6c0.9,0,1.6,0.7,1.6,1.6S92.6,66.6,91.8,66.6z
		 M96.1,84.1c-0.9,0-1.6-0.7-1.6-1.6c0-0.9,0.7-1.6,1.6-1.6c0.9,0,1.6,0.7,1.6,1.6C97.7,83.4,97,84.1,96.1,84.1z M96.1,79.7
		c-0.9,0-1.6-0.7-1.6-1.6c0-0.9,0.7-1.6,1.6-1.6c0.9,0,1.6,0.7,1.6,1.6C97.7,79,97,79.7,96.1,79.7z M96.1,75.3
		c-0.9,0-1.6-0.7-1.6-1.6c0-0.9,0.7-1.6,1.6-1.6c0.9,0,1.6,0.7,1.6,1.6C97.7,74.6,97,75.3,96.1,75.3z M96.1,71
		c-0.9,0-1.6-0.7-1.6-1.6c0-0.9,0.7-1.6,1.6-1.6c0.9,0,1.6,0.7,1.6,1.6C97.7,70.2,97,71,96.1,71z M96.1,66.6c-0.9,0-1.6-0.7-1.6-1.6
		s0.7-1.6,1.6-1.6c0.9,0,1.6,0.7,1.6,1.6S97,66.6,96.1,66.6z M96.1,62.2c-0.9,0-1.6-0.7-1.6-1.6c0-0.9,0.7-1.6,1.6-1.6
		c0.9,0,1.6,0.7,1.6,1.6C97.7,61.5,97,62.2,96.1,62.2z M100.4,88.5c-0.9,0-1.6-0.7-1.6-1.6s0.7-1.6,1.6-1.6c0.9,0,1.6,0.7,1.6,1.6
		S101.3,88.5,100.4,88.5z M100.4,84.1c-0.9,0-1.6-0.7-1.6-1.6c0-0.9,0.7-1.6,1.6-1.6c0.9,0,1.6,0.7,1.6,1.6
		C102,83.4,101.3,84.1,100.4,84.1z M100.4,79.7c-0.9,0-1.6-0.7-1.6-1.6c0-0.9,0.7-1.6,1.6-1.6c0.9,0,1.6,0.7,1.6,1.6
		C102,79,101.3,79.7,100.4,79.7z M100.4,75.3c-0.9,0-1.6-0.7-1.6-1.6c0-0.9,0.7-1.6,1.6-1.6c0.9,0,1.6,0.7,1.6,1.6
		C102,74.6,101.3,75.3,100.4,75.3z M100.4,71c-0.9,0-1.6-0.7-1.6-1.6c0-0.9,0.7-1.6,1.6-1.6c0.9,0,1.6,0.7,1.6,1.6
		C102,70.2,101.3,71,100.4,71z M100.4,66.6c-0.9,0-1.6-0.7-1.6-1.6s0.7-1.6,1.6-1.6c0.9,0,1.6,0.7,1.6,1.6S101.3,66.6,100.4,66.6z
		 M100.4,62.2c-0.9,0-1.6-0.7-1.6-1.6c0-0.9,0.7-1.6,1.6-1.6c0.9,0,1.6,0.7,1.6,1.6C102,61.5,101.3,62.2,100.4,62.2z M100.4,57.8
		c-0.9,0-1.6-0.7-1.6-1.6c0-0.9,0.7-1.6,1.6-1.6c0.9,0,1.6,0.7,1.6,1.6C102,57.1,101.3,57.8,100.4,57.8z M104.8,84.1
		c-0.9,0-1.6-0.7-1.6-1.6c0-0.9,0.7-1.6,1.6-1.6c0.9,0,1.6,0.7,1.6,1.6C106.3,83.4,105.6,84.1,104.8,84.1z M104.8,79.7
		c-0.9,0-1.6-0.7-1.6-1.6c0-0.9,0.7-1.6,1.6-1.6c0.9,0,1.6,0.7,1.6,1.6C106.3,79,105.6,79.7,104.8,79.7z M104.8,75.3
		c-0.9,0-1.6-0.7-1.6-1.6c0-0.9,0.7-1.6,1.6-1.6c0.9,0,1.6,0.7,1.6,1.6C106.3,74.6,105.6,75.3,104.8,75.3z M104.8,71
		c-0.9,0-1.6-0.7-1.6-1.6c0-0.9,0.7-1.6,1.6-1.6c0.9,0,1.6,0.7,1.6,1.6C106.3,70.2,105.6,71,104.8,71z M104.8,66.6
		c-0.9,0-1.6-0.7-1.6-1.6s0.7-1.6,1.6-1.6c0.9,0,1.6,0.7,1.6,1.6S105.6,66.6,104.8,66.6z M104.8,62.2c-0.9,0-1.6-0.7-1.6-1.6
		c0-0.9,0.7-1.6,1.6-1.6c0.9,0,1.6,0.7,1.6,1.6C106.3,61.5,105.6,62.2,104.8,62.2z M104.8,57.8c-0.9,0-1.6-0.7-1.6-1.6
		c0-0.9,0.7-1.6,1.6-1.6c0.9,0,1.6,0.7,1.6,1.6C106.3,57.1,105.6,57.8,104.8,57.8z M109.1,92.9c-0.9,0-1.6-0.7-1.6-1.6
		s0.7-1.6,1.6-1.6c0.9,0,1.6,0.7,1.6,1.6S110,92.9,109.1,92.9z M109.1,88.5c-0.9,0-1.6-0.7-1.6-1.6s0.7-1.6,1.6-1.6
		c0.9,0,1.6,0.7,1.6,1.6S110,88.5,109.1,88.5z M109.1,84.1c-0.9,0-1.6-0.7-1.6-1.6c0-0.9,0.7-1.6,1.6-1.6c0.9,0,1.6,0.7,1.6,1.6
		C110.7,83.4,110,84.1,109.1,84.1z M109.1,79.7c-0.9,0-1.6-0.7-1.6-1.6c0-0.9,0.7-1.6,1.6-1.6c0.9,0,1.6,0.7,1.6,1.6
		C110.7,79,110,79.7,109.1,79.7z M109.1,75.3c-0.9,0-1.6-0.7-1.6-1.6c0-0.9,0.7-1.6,1.6-1.6c0.9,0,1.6,0.7,1.6,1.6
		C110.7,74.6,110,75.3,109.1,75.3z M109.1,71c-0.9,0-1.6-0.7-1.6-1.6c0-0.9,0.7-1.6,1.6-1.6c0.9,0,1.6,0.7,1.6,1.6
		C110.7,70.2,110,71,109.1,71z M109.1,66.6c-0.9,0-1.6-0.7-1.6-1.6s0.7-1.6,1.6-1.6c0.9,0,1.6,0.7,1.6,1.6S110,66.6,109.1,66.6z
		 M109.1,62.2c-0.9,0-1.6-0.7-1.6-1.6c0-0.9,0.7-1.6,1.6-1.6c0.9,0,1.6,0.7,1.6,1.6C110.7,61.5,110,62.2,109.1,62.2z M109.1,57.8
		c-0.9,0-1.6-0.7-1.6-1.6c0-0.9,0.7-1.6,1.6-1.6c0.9,0,1.6,0.7,1.6,1.6C110.7,57.1,110,57.8,109.1,57.8z M109.1,53.4
		c-0.9,0-1.6-0.7-1.6-1.6c0-0.9,0.7-1.6,1.6-1.6c0.9,0,1.6,0.7,1.6,1.6C110.7,52.7,110,53.4,109.1,53.4z"/>
	<path class="st2" d="M137.1,46.1l-24.9-23v36.4c0.3-0.3,0.7-0.6,1.2-0.6c0.9,0,1.6,0.7,1.6,1.6c0,0.9-0.7,1.6-1.6,1.6
		c-0.5,0-0.9-0.2-1.2-0.6v2.3c0.3-0.3,0.7-0.6,1.2-0.6c0.9,0,1.6,0.7,1.6,1.6s-0.7,1.6-1.6,1.6c-0.5,0-0.9-0.2-1.2-0.6v2.3
		c0.3-0.3,0.7-0.6,1.2-0.6c0.9,0,1.6,0.7,1.6,1.6c0,0.9-0.7,1.6-1.6,1.6c-0.5,0-0.9-0.2-1.2-0.6v2.3c0.3-0.3,0.7-0.6,1.2-0.6
		c0.9,0,1.6,0.7,1.6,1.6c0,0.9-0.7,1.6-1.6,1.6c-0.5,0-0.9-0.2-1.2-0.6v2.3c0.3-0.3,0.7-0.6,1.2-0.6c0.9,0,1.6,0.7,1.6,1.6
		c0,0.9-0.7,1.6-1.6,1.6c-0.5,0-0.9-0.2-1.2-0.6v2.3c0.3-0.3,0.7-0.6,1.2-0.6c0.9,0,1.6,0.7,1.6,1.6c0,0.9-0.7,1.6-1.6,1.6
		c-0.5,0-0.9-0.2-1.2-0.6v11.1c0.3-0.3,0.7-0.6,1.2-0.6c0.9,0,1.6,0.7,1.6,1.6s-0.7,1.6-1.6,1.6c-0.5,0-0.9-0.2-1.2-0.6v6.7
		c0.3-0.3,0.7-0.6,1.2-0.6c0.9,0,1.6,0.7,1.6,1.6c0,0.9-0.7,1.6-1.6,1.6c-0.5,0-0.9-0.2-1.2-0.6v5.5l37.2,39L137.1,46.1z
		 M117.7,106.1c-0.9,0-1.6-0.7-1.6-1.6c0-0.9,0.7-1.6,1.6-1.6c0.9,0,1.6,0.7,1.6,1.6C119.3,105.3,118.6,106.1,117.7,106.1z
		 M117.7,101.7c-0.9,0-1.6-0.7-1.6-1.6c0-0.9,0.7-1.6,1.6-1.6c0.9,0,1.6,0.7,1.6,1.6C119.3,100.9,118.6,101.7,117.7,101.7z
		 M117.7,75.3c-0.9,0-1.6-0.7-1.6-1.6c0-0.9,0.7-1.6,1.6-1.6c0.9,0,1.6,0.7,1.6,1.6C119.3,74.6,118.6,75.3,117.7,75.3z M117.7,71
		c-0.9,0-1.6-0.7-1.6-1.6c0-0.9,0.7-1.6,1.6-1.6c0.9,0,1.6,0.7,1.6,1.6C119.3,70.2,118.6,71,117.7,71z M117.7,66.6
		c-0.9,0-1.6-0.7-1.6-1.6s0.7-1.6,1.6-1.6c0.9,0,1.6,0.7,1.6,1.6S118.6,66.6,117.7,66.6z M117.7,62.2c-0.9,0-1.6-0.7-1.6-1.6
		c0-0.9,0.7-1.6,1.6-1.6c0.9,0,1.6,0.7,1.6,1.6C119.3,61.5,118.6,62.2,117.7,62.2z M122.1,110.4c-0.9,0-1.6-0.7-1.6-1.6
		c0-0.9,0.7-1.6,1.6-1.6c0.9,0,1.6,0.7,1.6,1.6C123.7,109.7,122.9,110.4,122.1,110.4z M122.1,106.1c-0.9,0-1.6-0.7-1.6-1.6
		c0-0.9,0.7-1.6,1.6-1.6c0.9,0,1.6,0.7,1.6,1.6C123.7,105.3,122.9,106.1,122.1,106.1z M122.1,101.7c-0.9,0-1.6-0.7-1.6-1.6
		c0-0.9,0.7-1.6,1.6-1.6c0.9,0,1.6,0.7,1.6,1.6C123.7,100.9,122.9,101.7,122.1,101.7z M122.1,84.1c-0.9,0-1.6-0.7-1.6-1.6
		c0-0.9,0.7-1.6,1.6-1.6c0.9,0,1.6,0.7,1.6,1.6C123.7,83.4,122.9,84.1,122.1,84.1z M122.1,79.7c-0.9,0-1.6-0.7-1.6-1.6
		c0-0.9,0.7-1.6,1.6-1.6c0.9,0,1.6,0.7,1.6,1.6C123.7,79,122.9,79.7,122.1,79.7z M122.1,66.6c-0.9,0-1.6-0.7-1.6-1.6
		s0.7-1.6,1.6-1.6c0.9,0,1.6,0.7,1.6,1.6S122.9,66.6,122.1,66.6z M122.1,62.2c-0.9,0-1.6-0.7-1.6-1.6c0-0.9,0.7-1.6,1.6-1.6
		c0.9,0,1.6,0.7,1.6,1.6C123.7,61.5,122.9,62.2,122.1,62.2z M126.4,106.1c-0.9,0-1.6-0.7-1.6-1.6c0-0.9,0.7-1.6,1.6-1.6
		c0.9,0,1.6,0.7,1.6,1.6C128,105.3,127.3,106.1,126.4,106.1z M126.4,101.7c-0.9,0-1.6-0.7-1.6-1.6c0-0.9,0.7-1.6,1.6-1.6
		c0.9,0,1.6,0.7,1.6,1.6C128,100.9,127.3,101.7,126.4,101.7z M126.4,97.3c-0.9,0-1.6-0.7-1.6-1.6s0.7-1.6,1.6-1.6
		c0.9,0,1.6,0.7,1.6,1.6S127.3,97.3,126.4,97.3z M126.4,71c-0.9,0-1.6-0.7-1.6-1.6c0-0.9,0.7-1.6,1.6-1.6c0.9,0,1.6,0.7,1.6,1.6
		C128,70.2,127.3,71,126.4,71z M126.4,66.6c-0.9,0-1.6-0.7-1.6-1.6s0.7-1.6,1.6-1.6c0.9,0,1.6,0.7,1.6,1.6S127.3,66.6,126.4,66.6z
		 M130.7,110.4c-0.9,0-1.6-0.7-1.6-1.6c0-0.9,0.7-1.6,1.6-1.6s1.6,0.7,1.6,1.6C132.3,109.7,131.6,110.4,130.7,110.4z M130.7,66.6
		c-0.9,0-1.6-0.7-1.6-1.6s0.7-1.6,1.6-1.6s1.6,0.7,1.6,1.6S131.6,66.6,130.7,66.6z"/>
	<linearGradient id="SVGID_1_" gradientUnits="userSpaceOnUse" x1="75" y1="70.3636" x2="75" y2="-9.9134">
		<stop  offset="0" style="stop-color:#FFF33B"/>
		<stop  offset="5.948725e-02" style="stop-color:#FFE029"/>
		<stop  offset="0.1303" style="stop-color:#FFD218"/>
		<stop  offset="0.2032" style="stop-color:#FEC90F"/>
		<stop  offset="0.2809" style="stop-color:#FDC70C"/>
		<stop  offset="0.6685" style="stop-color:#F3903F"/>
		<stop  offset="0.8876" style="stop-color:#ED683C"/>
		<stop  offset="1" style="stop-color:#E93E3A"/>
	</linearGradient>
	<path class="st3" d="M71.3,59.6L71.3,59.6l3.7,3.9l3.7-3.9h0l13.6-14.3c4.8-5,7.4-11.7,7.4-18.8C99.8,11.9,88.7,0,75,0
		C61.3,0,50.2,11.9,50.2,26.4c0,7.1,2.6,13.8,7.4,18.8L71.3,59.6z M65.8,22.3c0.8-3.5,3.6-6.2,7-7c0.7-0.2,1.5-0.2,2.2-0.2
		c5.9,0,10.5,5.4,9.2,11.6c-0.8,3.5-3.6,6.2-7,7c-0.7,0.2-1.5,0.2-2.2,0.2C69.1,33.8,64.5,28.4,65.8,22.3z"/>
</g>
</svg>
