<?xml version="1.0" encoding="utf-8"?>
<!-- Generator: Adobe Illustrator 21.0.0, SVG Export Plug-In . SVG Version: 6.00 Build 0)  -->
<svg version="1.1" id="Layer_2" xmlns="http://www.w3.org/2000/svg" xmlns:xlink="http://www.w3.org/1999/xlink" x="0px" y="0px"
	 viewBox="0 0 100 100" style="enable-background:new 0 0 100 100;" xml:space="preserve">
<style type="text/css">
	.st0{fill:#666666;}
</style>
<path class="st0" d="M18.7,55.8c0.2-0.1,0.4-0.3,0.6-0.4c0,0,0,0,0.1-0.1c0.7-0.5,1.2-1.2,1.7-1.9c0,0,0,0,0,0h12.6
	c1.2,2,3.3,3.3,5.8,3.3s4.6-1.3,5.8-3.3h10.8c1.2,2,3.3,3.3,5.8,3.3s4.6-1.3,5.8-3.3h11.2c1.2,2,3.3,3.3,5.8,3.3
	c3.7,0,6.7-3,6.7-6.7c0-2.5-1.3-4.6-3.3-5.8V31.2c2-1.2,3.3-3.3,3.3-5.8c0-3.7-3-6.7-6.7-6.7c-2.4,0-4.5,1.3-5.7,3.2H67.6
	c-1.2-1.9-3.3-3.2-5.7-3.2c-2.4,0-4.5,1.3-5.7,3.2h-11c-1.2-1.9-3.3-3.2-5.7-3.2c-2.4,0-4.5,1.3-5.7,3.2H21c0,0,0,0,0,0
	c-0.3-0.5-0.7-0.9-1.1-1.3c-0.2-0.2-0.4-0.3-0.6-0.5c0,0-0.1,0-0.1-0.1c-0.2-0.1-0.4-0.3-0.6-0.4c0,0,0,0,0,0
	c-0.2-0.1-0.5-0.3-0.7-0.4c0,0-0.1,0-0.1,0c-0.2-0.1-0.4-0.2-0.7-0.2c-0.1,0-0.1,0-0.2-0.1c-0.2,0-0.4-0.1-0.6-0.1
	c-0.1,0-0.2,0-0.2,0c-0.3,0-0.5-0.1-0.8-0.1c-1.2,0-2.3,0.3-3.2,0.8c-1,0.5-1.8,1.3-2.4,2.2c-0.1,0.2-0.2,0.4-0.3,0.6
	c-0.5,1-0.8,2.1-0.8,3.2v0c0,3.7,3,6.7,6.7,6.7c0,0,0,0,0,0c0.3,0,0.5,0,0.8-0.1c0.1,0,0.2,0,0.2,0c0.2,0,0.4-0.1,0.6-0.1
	c0.1,0,0.1,0,0.2-0.1c0.5-0.2,1-0.4,1.5-0.6c0,0,0.1,0,0.1-0.1c0.2-0.1,0.4-0.3,0.6-0.4c0,0,0,0,0.1-0.1c0.7-0.5,1.2-1.2,1.7-1.9
	c0,0,0,0,0,0h12.6c1.2,2,3.3,3.3,5.8,3.3s4.6-1.3,5.8-3.3h10.8c1.2,2,3.3,3.3,5.8,3.3s4.6-1.3,5.8-3.3h11.2c0.6,1,1.4,1.8,2.4,2.4
	v13c-0.9,0.5-1.7,1.3-2.3,2.2H67.6c-1.2-1.9-3.3-3.2-5.7-3.2c-2.4,0-4.5,1.3-5.7,3.2h-11c-1.2-1.9-3.3-3.2-5.7-3.2
	c-2.4,0-4.5,1.3-5.7,3.2H21c0,0,0,0,0,0c-0.3-0.5-0.7-0.9-1.1-1.3c-0.2-0.2-0.4-0.3-0.6-0.5c0,0-0.1,0-0.1-0.1
	c-0.2-0.1-0.4-0.3-0.6-0.4c0,0,0,0,0,0c-0.2-0.1-0.5-0.3-0.7-0.4c0,0-0.1,0-0.1,0c-0.2-0.1-0.4-0.2-0.7-0.2c-0.1,0-0.1,0-0.2-0.1
	c-0.2,0-0.4-0.1-0.6-0.1c-0.1,0-0.2,0-0.2,0c-0.3,0-0.5-0.1-0.8-0.1c-1.2,0-2.3,0.3-3.2,0.8c-1,0.5-1.8,1.3-2.4,2.2
	c-0.1,0.2-0.2,0.4-0.3,0.6c-0.5,1-0.8,2.1-0.8,3.2v0c0,2.5,1.3,4.6,3.3,5.8v12.9c-0.9,0.5-1.6,1.2-2.2,2c-0.1,0.2-0.2,0.4-0.3,0.6
	c-0.5,1-0.8,2.1-0.8,3.2v0c0,3.7,3,6.7,6.7,6.7c0,0,0,0,0,0c0.3,0,0.5,0,0.8-0.1c0.1,0,0.2,0,0.2,0c0.2,0,0.4-0.1,0.6-0.1
	c0.1,0,0.1,0,0.2-0.1c0.5-0.2,1-0.4,1.5-0.6c0,0,0.1,0,0.1-0.1c0.2-0.1,0.4-0.3,0.6-0.4c0,0,0,0,0.1-0.1c0.7-0.5,1.2-1.2,1.7-1.9
	c0,0,0,0,0,0h12.6c1.2,2,3.3,3.3,5.8,3.3s4.6-1.3,5.8-3.3h10.8c1.2,2,3.3,3.3,5.8,3.3s4.6-1.3,5.8-3.3h11.2c1.2,2,3.3,3.3,5.8,3.3
	c3.7,0,6.7-3,6.7-6.7s-3-6.7-6.7-6.7c-2.4,0-4.5,1.3-5.7,3.2H67.6c-1.2-1.9-3.3-3.2-5.7-3.2c-2.4,0-4.5,1.3-5.7,3.2h-11
	c-1.2-1.9-3.3-3.2-5.7-3.2c-2.4,0-4.5,1.3-5.7,3.2H21c0,0,0,0,0,0c-0.3-0.5-0.7-0.9-1.1-1.3c-0.2-0.2-0.4-0.3-0.6-0.5
	c0,0-0.1,0-0.1-0.1c-0.2-0.1-0.3-0.2-0.5-0.3L18.7,55.8C18.7,55.9,18.7,55.9,18.7,55.8z M15.3,28.7c-1.8,0-3.3-1.5-3.3-3.3
	s1.5-3.3,3.3-3.3s3.3,1.5,3.3,3.3S17.1,28.7,15.3,28.7z M39.5,28.7c-1.8,0-3.2-1.5-3.2-3.2s1.5-3.2,3.2-3.2s3.2,1.5,3.2,3.2
	S41.3,28.7,39.5,28.7z M61.9,28.7c-1.8,0-3.2-1.5-3.2-3.2s1.5-3.2,3.2-3.2s3.2,1.5,3.2,3.2S63.7,28.7,61.9,28.7z M84.7,53.3
	c-1.8,0-3.3-1.5-3.3-3.3s1.5-3.3,3.3-3.3s3.3,1.5,3.3,3.3S86.5,53.3,84.7,53.3z M84.7,22.2c1.8,0,3.3,1.5,3.3,3.3s-1.5,3.3-3.3,3.3
	s-3.3-1.5-3.3-3.3S82.9,22.2,84.7,22.2z M61.9,46.8c1.8,0,3.2,1.5,3.2,3.2s-1.5,3.2-3.2,3.2s-3.2-1.5-3.2-3.2S60.1,46.8,61.9,46.8z
	 M39.5,46.8c1.8,0,3.2,1.5,3.2,3.2s-1.5,3.2-3.2,3.2s-3.2-1.5-3.2-3.2S37.7,46.8,39.5,46.8z M84.7,71.3c1.8,0,3.3,1.5,3.3,3.3
	s-1.5,3.3-3.3,3.3s-3.3-1.5-3.3-3.3S82.9,71.3,84.7,71.3z M61.9,71.3c1.8,0,3.2,1.5,3.2,3.2s-1.5,3.2-3.2,3.2s-3.2-1.5-3.2-3.2
	S60.1,71.3,61.9,71.3z M39.5,71.3c1.8,0,3.2,1.5,3.2,3.2s-1.5,3.2-3.2,3.2s-3.2-1.5-3.2-3.2S37.7,71.3,39.5,71.3z M15.3,46.8
	c1.8,0,3.3,1.5,3.3,3.3s-1.5,3.3-3.3,3.3S12,51.9,12,50.1S13.5,46.8,15.3,46.8z M15.3,77.8c-1.8,0-3.3-1.5-3.3-3.3s1.5-3.3,3.3-3.3
	s3.3,1.5,3.3,3.3S17.1,77.8,15.3,77.8z"/>
</svg>
